                  http://www.imdb.com/title/tt2040306/

Plot:
Bangshi Das is an impersonator of Charlie Chaplin. He earns peanuts by being the 'joker' at birthday parties. However, he prefers to call himself an actor rather than a worker. His life circles around his son who is the greatest critic of his performances. Poverty never seems bitter as the father-son duo knows how to make fun of it.

Info:

General

Complete name : Chaplin (2011)~Bengali~SaNRiMChaplin~SaNRiM.mkv
Format : Matroska
Format version : Version 4 / Version 2
File size : 502 MiB
Duration : 2h 12mn
Overall bit rate mode : Variable
Overall bit rate : 529 Kbps

Video


ID : 1
Format : AVC
Format/Info : Advanced Video Codec
Format profile : High@L4.0
Format settings, CABAC : Yes
Format settings, ReFrames : 3 frames
Codec ID : V_MPEG4/ISO/AVC
Duration : 2h 12mn
Bit rate mode : Variable
Bit rate : 400 Kbps
Maximum bit rate : 25.0 Mbps
Width : 720 pixels
Height : 404 pixels
Display aspect ratio : 16:9
Frame rate mode : Constant
Frame rate : 23.962 fps
Original frame rate : 23.976 fps
Color space : YUV
Chroma subsampling : 4:2:0
Bit depth : 8 bits
Scan type : Progressive
Bits/(Pixel*Frame) : 0.057
Stream size : 370 MiB (74%)
Writing library : x264 core 114 r1924 08d04a4
Default : Yes
Forced : No

Audio

ID : 2
Format : MPEG Audio
Format version : Version 1
Format profile : Layer 2
Codec ID : A_MPEG/L2
Codec ID/Hint : MP2
Duration : 2h 12mn
Bit rate mode : Constant
Bit rate : 128 Kbps
Channel(s) : 2 channels
Sampling rate : 44.1 KHz
Compression mode : Lossy
Stream size : 121 MiB (24%)
Default : Yes
Forced : No

Screen Shot: 
http://i.imgbox.com/acz9LlOz.png 
http://i.imgbox.com/adogSpBZ.png 
http://i.imgbox.com/abwfK9jr.png 
http://i.imgbox.com/actdGySE.png 
http://i.imgbox.com/adqyu4EA.png 
http://i.imgbox.com/acnV6zOM.png
                                 
                       Special thanks to:
                           Robin5555

 
                  If you like my work please comment
                      Any request? Just PM me
                   Please seed long after download
                         Thank you & enjoy
